<?xml version="1.0" encoding="utf-8"?>
<!-- Generator: Adobe Illustrator 27.9.0, SVG Export Plug-In . SVG Version: 6.00 Build 0)  -->
<svg version="1.1" id="Layer_1" xmlns="http://www.w3.org/2000/svg" xmlns:xlink="http://www.w3.org/1999/xlink" x="0px" y="0px"
	 viewBox="0 0 864 858.4" style="enable-background:new 0 0 864 858.4;" xml:space="preserve">
<style type="text/css">
	.st0{fill:#FFFFFF;}
</style>
<g>
	<path class="st0" d="M407.6,835.6h-0.4c-2.1-0.4-4.3-1.3-6-0.9c-4.3,0.4-8.6-2.1-12.9-1.3c-2.6,0.4-5.1-0.4-8.1-0.9
		c-5.6-0.9-11.2-1.7-17.2-2.6c-5.1-0.9-10.3-2.6-15.9-3c-5.1-0.4-9.4-2.1-14.6-3.4c-4.7-0.9-9.4-2.1-13.7-3.4s-8.6-2.6-12.4-3.9
		c-4.7-1.7-9.9-3.4-14.6-5.1c-6-2.1-12.4-4.7-18.4-6.9c-2.1-0.9-3.9-2.1-6-3c-2.6-1.3-5.6-2.1-8.1-3.4c-2.1-0.9-3.9-2.1-6-3
		c-1.3-0.4-3-0.4-4.3-0.9c-6-3-11.6-6-17.6-9.4c-8.6-5.1-17.6-9.9-25.7-15c-8.1-5.1-16.3-10.7-24-16.7c-7.7-5.6-15-12-21.9-18.4
		c-8.1-7.3-15.9-14.6-23.6-22.3c-9.9-9.9-19.3-20.2-27.4-31.7c-5.1-7.3-11.2-14.2-16.3-21.4c-4.3-6-8.1-12.4-12-18.9
		c-1.7-2.6-3.4-5.6-5.1-8.1c-0.9-1.7-0.9-3.4-2.1-5.1c-3.4-4.7-5.6-9.9-8.1-15c-2.6-5.1-4.7-10.3-7.3-15.9
		c-1.7-3.9-3.4-7.7-5.1-11.6c-1.7-4.7-3-9.4-4.7-14.2c-3-6.4-5.1-13.3-6.9-20.2c-1.3-3.9-1.7-7.7-3-11.6c-3-8.1-4.7-16.7-6-25.7
		c-0.4-2.6-0.9-5.6-1.3-8.1c-0.9-3.9-1.7-7.7-2.6-11.6c-0.4-3,0-6-0.9-8.6c-1.7-3.9-1.7-8.1-1.7-12c0-2.1,0-4.3-0.4-6
		c-0.4-3.4-0.9-6.4-1.3-9.9c0-0.9-0.4-1.3-0.4-2.1c0-14.6,0-29.6,0-44.2c0-0.4,0.4-0.9,0.4-1.7c0.4-5.6,0.9-11.2,1.7-16.7
		c0.4-3.9,0.4-7.7,1.3-11.6c0.9-6.9,2.6-13.3,3.4-20.2c0.9-5.6,1.3-11.2,2.6-16.7c2.1-8.6,4.3-17.6,6.9-26.2
		c0.9-3.4,2.6-6.9,3.9-10.3c3-9,6-17.6,9.4-26.6c3-7.7,6.4-15,9.9-22.3c4.7-9,9.4-17.6,14.2-26.2c0.4-0.9,0.9-1.3,1.3-2.1
		c2.1-3.4,3.9-7.3,6-10.7c1.3-1.7,3-3.4,4.3-5.1c2.1-3.4,3.9-7.3,6-10.7c4.7-8.1,11.6-14.2,16.7-22.3c2.1-3.4,5.1-6.4,7.7-9.4
		c5.1-5.6,9.9-11.2,15-16.7c1.3-1.7,3-3,4.3-4.3c2.6-2.6,4.7-5.6,7.3-8.1c6-5.6,12.4-11.2,18.9-16.3c9-7.7,18-15.4,27.4-22.3
		c7.7-5.6,15.9-9.9,24-15c1.7-1.3,3.9-1.7,5.6-3c3.9-2.6,7.3-5.6,10.7-7.7c6.4-3.4,12.4-6.9,18.9-10.3c6.4-3,12.9-5.6,19.3-8.6
		c2.6-1.3,5.1-2.6,8.1-3.9c4.7-1.7,9.9-3,14.6-4.7c6-2.1,11.6-4.3,17.6-6.4c3-0.9,5.6-1.7,8.6-2.6c0.9-0.4,2.1-0.4,3-0.4
		c2.1-0.4,4.7-0.9,6.9-1.3c2.1-0.4,4.3-1.7,6.4-2.1c5.1-1.3,10.3-2.1,15.9-3.4c6-1.3,12.4-2.6,18.4-3.4c5.6-0.9,10.7-1.7,16.3-2.1
		c5.6-0.4,11.6-0.9,17.2-1.7c2.6-0.4,5.6-0.9,8.1-0.9c7.3-0.4,14.6-0.4,21.9-0.4c3.9,0,7.7,0.4,11.2,0.4c2.6,0,5.1,0.4,7.7,0.4
		c5.6,0,10.7,0,16.3,0c0.4,0,0.4,0,0.9,0c2.1,2.1,4.7,1.7,7.7,1.3c0.4,0,0.9,0,1.7,0c5.6,0.9,11.2,2.1,16.7,2.6
		c9,0.4,17.6,2.6,26.2,4.3c3,0.4,5.6,1.7,8.6,2.1c4.3,0.9,8.6,1.7,12.9,2.6c4.3,0.9,8.1,2.6,12.4,3.9c4.3,0.9,7.3,4.7,12,3.9
		c0.4,0,0.9,0.4,1.3,0.4c5.1,1.7,9.9,3.4,15,5.6c6.4,2.6,12.9,5.1,18.9,8.1c2.6,1.3,5.1,3.4,7.7,4.3c3,1.3,6.4,2.1,9.4,3.9
		c9.4,5.1,18.4,10.3,27.4,15.9c7.7,4.7,15.4,9.4,22.7,14.6c3.9,2.6,6.9,5.6,10.7,8.1c9.9,7.7,20.2,14.6,28.7,23.6
		c2.1,2.6,5.1,4.3,7.7,6.9c3.9,3.9,7.7,7.7,11.2,12c4.7,5.1,9.9,9.9,14.2,15.4c5.1,6,9.9,12.4,15,18.9c5.1,6.9,10.7,13.3,15.4,20.6
		c8.1,12.4,15.4,25.3,23.2,38.2c2.1,3.9,3.9,8.1,6,12c1.7,3.4,3.4,7.3,5.1,10.7c1.7,4.3,3.4,9,5.1,13.3c1.7,3.9,3.4,7.7,4.7,11.6
		c1.7,4.7,3,9.4,4.7,14.2c1.7,5.6,3.9,11.2,5.6,16.7c1.7,6.4,3,12.9,4.3,19.3c0.9,4.3,2.1,8.6,3,12.9s0.9,8.6,1.7,12.9
		c0.4,1.7,1.7,3.9,1.3,5.6c-0.4,6,1.7,11.6,1.7,17.6c0,8.6,1.7,16.7,1.7,25.3c0.4,11.2,0,22.7-0.9,33.9c-0.9,9-0.4,17.6-2.1,26.6
		c-0.9,5.6-1.3,11.2-2.1,16.7c-0.4,4.7-1.3,9.4-2.1,14.2c-0.9,4.7-2.1,9-3,13.3c-1.3,6-2.6,12-4.3,17.6c-1.3,4.3-2.6,8.6-4.3,12.9
		c-1.3,3.9-2.1,7.3-3.9,10.7c-1.7,4.3-3.4,8.6-5.1,12.9s-3,8.1-4.7,12.4c-0.4,1.3-1.7,2.6-2.1,3.9c-1.3,3.9-2.6,7.7-4.3,11.2
		c-1.7,3.9-3.9,7.3-6,11.2c-0.4,1.3-0.9,2.6-1.7,3.9c-5.1,8.6-10.3,17.6-15.4,26.2c-3.4,5.6-7.3,11.6-11.2,17.2
		c-3,4.7-6.9,9-10.3,13.3c-4.7,6-9.4,12-14.2,17.6c-4.3,4.7-8.6,9.4-13.3,14.2c-1.3,1.7-2.6,3.4-4.3,5.1c-2.6,2.1-5.1,4.3-7.7,6.9
		c-4.7,4.7-9.4,9.4-14.2,13.7c-3,3-6.4,5.6-9.9,8.6c-6.9,5.6-14.2,10.7-21,15.9c-6.4,4.7-12.4,9.4-19.3,13.7
		c-8.1,5.1-16.3,9.4-24.9,14.2c-5.6,3-11.2,5.6-16.3,8.6s-11.2,5.1-16.7,7.3c-12.9,5.6-26.6,10.3-39.9,15c-2.6,0.9-5.1,1.3-7.3,2.1
		c-3.9,0.9-7.7,2.1-11.6,3c-4.3,1.3-8.6,2.6-12.9,3.4c-4.7,1.3-9,2.1-13.7,3s-9.9,1.7-15,2.6c-3.4,0.4-7.3,0.9-10.7,1.3
		c-3,0.4-5.6,0.9-8.6,1.3c-3,0.4-6.4,0.4-9.4,0.4c-6.4,0.4-12.9,0.9-19.3,1.3c-4.3,0-8.1,0.4-12.4,0.4c0,0,0,0,0,0.4
		c-0.4,0-0.9,0-0.9,0c-2.1-1.7-4.3-0.4-6-0.4c-6,0-12,0-17.6,0C409.3,835.2,408.5,835.2,407.6,835.6z M128,633.2
		c0.9,0.9,2.1,1.7,2.6,2.6c3.4,4.7,6.4,9.4,9.4,13.7c2.1,3,5.1,6,7.7,9c5.1,6,9.9,12,15,17.6c9.4,9.4,19.3,18.9,29.2,28.3
		c3.4,3.4,6.9,6.4,10.7,9.4c6.9,4.7,13.7,9.4,20.6,14.2c3.4,2.6,6.9,5.1,10.7,7.3c8.6,5.1,17.6,9.9,26.6,15c0.9,0.4,1.7,1.7,2.6,2.1
		c3.4,1.7,6.9,3,10.3,4.7c7.7,3.4,15,7.3,23.2,10.3c7.3,3,15,5.1,22.7,7.7c6.4,2.1,12.9,4.3,19.7,6.4c4.3,1.3,9,2.6,13.7,3.4
		c6.9,1.3,13.7,2.6,20.6,3.9c5.1,0.9,10.7,1.7,15.9,2.6c6.9,0.9,13.3,1.7,20.2,2.6c2.1,0.4,4.3-0.4,6.4-0.4c3,0,6.4,0.9,9.4,0.9
		s6-0.4,9-0.4c6,0,12,0.4,18.4,0c5.6-0.4,11.2-1.3,16.7-2.1c6.4-0.9,13.3-1.3,19.7-2.1c4.7-0.4,9.4-1.3,14.2-2.1
		c3-0.4,5.6-1.3,8.6-2.1c6.4-1.3,13.3-2.6,19.7-4.3c3.9-0.9,7.7-2.6,12-3.9c7.3-2.6,14.6-4.7,21.9-7.3c6.4-2.6,12.9-5.1,19.3-7.7
		c4.3-1.7,9-3.4,13.3-5.6c7.7-4.3,15.4-8.6,22.7-12.9c5.1-3,10.3-5.6,15-9c8.1-5.6,15.9-11.2,23.6-17.2c6.4-4.7,12-9.9,18.4-15
		c3-2.6,6-5.1,8.6-7.7c3-3,6.4-5.6,9.4-8.6c6.4-6.9,12.9-14.2,19.3-21c3.4-3.9,6.9-7.7,10.3-11.6c6-8.6,12-17.2,18-25.7
		c8.1-11.6,14.2-23.6,20.6-36c3.9-7.3,6.9-15,10.3-22.3c2.6-6,5.1-12.4,7.7-18.9c1.7-5.1,3.4-10.7,4.7-16.3c2.6-9,4.7-18,7.3-27.4
		c0.4-1.7,0.9-3.9,1.3-5.6c0.4-1.3,0.4-2.6,0.4-4.3c0.9-3.9,1.3-7.7,2.1-12c0.4-4.3,1.3-8.6,1.7-12.9c0.4-3.4,0.9-7.3,0.9-10.7
		c0-2.1-1.7-3-3.4-3s-3,0.4-4.7,0.4c-2.6,0-5.1-0.4-7.7-0.4c-21.9,0-43.7,0-65.6,0c-5.1,0-9.9,0-15,0c-4.7,0-9,0-13.7,0
		c-1.7,0-3,0.4-4.7,0.4c-5.6,0-11.2-0.4-17.2-0.4s-12.4,0.4-18.4,0.4c-6.4,0-13.3-0.4-19.7-0.4c-3.4,0-6.9,0-10.3,0
		c-9.4,0-18.9-0.4-28.3-0.4c-6.9,0-13.7,0.4-20.6,0.4c-3,0-6,0-8.6,0c-3,0-3.9,0.9-3.9,3.9c0,6-0.4,11.6-0.4,17.6
		c0,13.3,0,26.6,0,39.9c0,1.7,0.9,3,3,3s4.3-0.4,6.4-0.4c9.9,0,19.7,0,30,0c4.3,0,9,0,13.3,0c5.6,0,11.2,0,16.7,0
		c6.9,0,13.3,0.4,20.2,0.4c1.7,0,3.4-0.4,5.1-0.4c5.1,0,9.9,0.4,15,0.4c4.3,0,9-0.4,13.3-0.4s9,0.4,13.3,0.4c2.6,0,5.6-0.4,8.1-0.4
		c3.9,0,8.1,0,12,0c1.7,0,3,1.7,2.1,3.4c-0.9,1.3-1.7,3-2.1,4.3c-2.1,6.9-4.3,13.3-6.9,20.2c-2.1,5.6-5.1,11.2-8.1,16.7
		c-2.6,4.7-4.7,9.9-7.3,14.6c-2.6,4.7-5.6,9-8.6,13.3c-3.4,5.1-7.3,10.3-11.2,15.9c-8.1,12.4-18.9,22.7-29.6,33.5
		c-5.6,5.6-12,10.7-18,15.9c-3,2.6-6,5.6-9.4,7.7c-7.7,5.6-15.9,10.7-24,15.9c-6.4,4.3-13.3,7.7-20.2,11.6
		c-3.4,2.1-6.9,3.9-10.7,5.6c-6,2.6-11.6,4.7-17.6,6.9c-3.9,1.3-7.3,3-11.2,4.3c-6.9,2.1-13.7,3.4-20.6,5.6
		c-4.3,1.3-8.6,2.6-12.9,3.4c-8.1,1.7-16.7,3-24.9,4.3c-8.6,1.3-17.2,2.6-25.7,2.1c-2.1,0-4.3,0.4-6.4,0.4c-6-0.4-11.6-0.9-17.6-0.9
		c-4.7-0.4-9.4,0-14.2-0.4c-5.6-0.4-11.2-1.7-16.7-2.6c-7.7-1.3-15.9-2.6-23.6-3.9c-2.6-0.4-5.1-1.7-7.7-2.1
		c-4.7-1.3-9.4-1.7-13.7-3.4c-7.7-2.6-15.4-5.1-22.7-8.1c-9-3.9-17.6-7.7-26.6-12c-6-3-12-6.4-18-9.9c-6.4-3.9-13.3-8.1-19.3-12.4
		c-8.6-6-16.7-12.4-24.9-18.9c-6.4-5.6-12.4-11.6-18.9-17.2c-1.3-1.3-2.6-3-3.9-4.7c-3.9-4.3-7.7-8.1-11.2-12.4
		c-2.1-2.1-3.4-5.1-5.1-7.3c-2.6-3.4-5.6-6.4-8.1-9.9c-3.9-5.1-7.3-10.7-10.3-16.3c-4.3-7.7-8.6-15.4-12.9-23.2c-3-6-6-12-8.1-18
		c-3.4-9-6.4-18-9.4-26.6c-0.9-2.6-3-5.6-2.1-7.7c1.3-3.9-1.3-6-2.1-9c-0.9-2.6-1.3-5.1-1.7-7.7s-0.4-5.1-0.9-7.7
		c-0.4-3.4-1.7-6.9-2.1-10.3c-0.4-3-0.4-6.4-0.9-9.4c-0.9-5.6-1.7-11.2-2.1-16.7c0-1.3,0.4-2.1,0.9-3.4c0-0.9,0-2.1,0-3
		c-0.4-4.3-0.9-8.6-0.9-12.9c0-3,0.9-6,1.3-8.6c0-3-0.4-6-0.4-9c0-1.3,0.9-3,0.9-4.3c0.9-6,1.3-12,2.1-18c1.3-8.6,3-17.2,5.1-25.7
		c0.9-4.7,3-9,4.3-13.7c0.9-2.6,1.3-5.6,2.6-8.1c1.3-3.9,3-8.1,4.7-12c3.9-8.6,7.7-17.6,11.6-26.2c1.3-2.6,3.4-4.3,4.3-6.9
		c1.3-5.6,4.7-9.4,7.3-13.7c1.3-2.1,3-4.3,4.7-6.4c3-4.7,5.6-9.9,9-14.6c2.1-3.4,5.1-6.4,7.7-9.9c2.6-3.4,4.7-6.9,7.7-9.4
		c2.6-2.6,5.6-4.3,7.3-7.7c3-4.7,7.7-8.6,12-12.9c3.9-3.9,8.6-7.7,12.9-11.2c3.9-3.4,7.7-6.4,11.6-9.4c3.9-3,8.1-5.6,12-8.6
		c6.9-4.7,13.7-9.4,21-13.7c6-3.9,12.4-6.9,18.9-10.3c6.9-3.4,13.7-6.4,21-9c13.3-4.7,26.6-9.4,40.3-12.9c3.9-0.9,8.1-2.6,12-3
		c6.4-1.3,12.9-1.7,18.9-2.6c9.4-1.7,19.3-2.1,29.2-2.6c4.3,0,8.6-0.4,12.4-0.4c4.7,0,9,0.4,13.7,0.4c4.7,0.4,9.9,0.4,14.6,0.9
		c5.6,0.4,11.2,1.3,17.2,2.1c2.6,0.4,5.1,0,7.3,0.9c6,1.3,11.6,2.6,17.6,4.3c7.7,2.1,15.4,4.3,22.7,6.9c5.6,1.7,11.6,3.9,16.7,6
		c11.2,4.7,22.3,9.4,32.6,15.4c10.3,5.6,20.2,12,29.6,18.9c7.3,5.1,14.2,10.7,21,16.7c3.4,3,6.9,6.4,10.3,9.9
		c5.1,5.1,10.3,10.3,15.4,15.9c2.1,2.1,3.4,4.7,5.6,7.3c5.1,7.3,10.7,14.6,15.9,21.9c2.1,3,3.9,4.7,8.1,4.7c15-0.4,30,0,45,0
		c7.7,0,15.9,0,23.6,0c2.1,0,3-0.9,3-3c-0.4-1.7-0.4-3.4-1.3-4.7c-3.4-7.3-6.9-14.6-10.7-21.4c-4.3-7.3-9-14.6-14.2-21.4
		c-3.4-5.1-7.3-9.4-11.2-14.2c-3.9-4.7-8.1-9.4-12.4-14.2c-5.6-5.6-10.7-11.6-16.3-16.7c-6.4-6-12.9-12-19.3-18
		c-0.9-0.4-1.3-1.3-2.1-1.7c-4.3-3.4-9-6.9-13.3-10.3c-5.6-4.3-11.2-9-17.6-12.9c-10.7-6.4-21-13.3-32.2-18.9
		c-8.6-3.9-16.7-9-25.7-12.4c-9.9-4.3-20.2-7.3-30-11.2c-4.3-1.7-8.6-3-13.3-4.3s-9.9-2.6-15-3.4c-5.1-1.3-9.9-2.1-15-3.4
		c-4.7-0.9-9.9-1.3-14.6-2.1c-7.3-1.3-14.2-2.1-21.4-2.6c-3.4,0-6.9,0.4-10.3-1.3c-0.4-0.4-1.7,0-2.1,0c-8.6,0-16.7,0-25.3,0
		c-4.3,0-9-0.4-13.3-0.4c-2.6,0-4.7,1.3-7.3,1.3c-4.3,0.4-8.1,0.4-12.4,0.4c-5.1,0.4-9.9,0.9-15,1.3c-1.3,0-2.1,0.4-3.4,0.4
		c-6.4,0.9-12.4,1.7-18.9,2.6h-0.4c-3.9,1.3-8.1,2.1-12,3.4c-6,1.7-12,3-18.4,4.7c-6,1.7-12.4,2.1-17.6,6c-0.4,0-0.4,0.4-0.9,0.4
		c-3.9,1.3-8.1,1.7-11.6,3.4c-5.1,1.7-9.9,4.3-15,6.4c-9,4.3-17.6,8.1-26.2,12.4c-5.6,3-11.2,6-16.3,9.4c-6.4,3.9-12.9,7.7-19.3,12
		c-5.1,3.9-10.3,8.1-15.4,11.6c-10.3,6.9-18.9,15.9-27.9,23.6c-4.3,3.9-7.7,8.1-11.6,12c-6.4,6.4-12.9,12.9-18.4,20.2
		c-3.4,5.1-8.1,9.4-11.6,14.6c-5.6,7.7-11.2,15.9-16.3,24c-4.3,6.4-8.1,12.9-11.6,19.3c-6,11.2-11.6,22.7-17.2,34.3
		c-1.3,2.6-2.1,5.1-3,7.7c-2.6,6.9-5.1,13.3-7.3,20.2c-1.7,5.1-3,10.3-4.3,15c-1.7,6.4-3.9,12.4-5.6,18.9c-1.3,6-2.6,12-3.4,18.4
		c-0.9,3.9-0.9,8.1-1.7,12c-0.4,2.1-0.9,4.7-1.3,6.9c-0.4,1.3-0.4,2.6-0.4,3.9c0,3.9,0,7.3-0.4,11.2c-0.4,5.1-0.9,10.3-0.9,15
		s0.4,9.9,0.4,14.6c0,3-0.9,6,0,9.4c1.3,6.4,1.3,13.3,1.7,19.7c0.9,7.3,1.3,14.6,2.1,21.4c0.9,5.6,2.1,10.7,3.4,16.3
		c0.9,3.9,2.1,7.7,3,12c1.7,6.4,3,12.9,5.1,19.3c2.1,6.4,4.3,12.9,6.9,19.3c2.6,6.9,5.6,13.3,8.1,20.2c2.6,6.9,5.6,13.3,9,19.3
		s6.4,12,9.9,18c2.1,3.4,4.3,6.9,6.4,10.7C124.2,626.3,126.3,629.8,128,633.2z M330.9,241.7c-0.4,0.4-0.4,0.4-0.9,0.9
		c-0.9-0.9-1.7-1.3-2.1-2.1c-2.6-3.9-6-6.9-10.3-8.1c-2.6-0.9-6.9,1.3-6.9,3.4c0,3,0.4,5.6,0.4,8.6c0,1.3-0.4,2.6-0.9,3.9
		c-0.9-0.4-2.1-0.4-3-0.9c-2.6-1.3-5.1,0-5.1,3.4c0,6.9,0,14.2,1.3,21c1.3,7.3,3.4,14.2,5.6,21c0,0.4,0,1.7-0.4,2.1
		s-1.3,0.4-2.1,0.4c-2.1-0.9-3.9-0.4-5.1,0.9c-1.3,1.7-2.1,3.9-3,6s-0.9,4.7-0.9,7.3c-0.4,3-1.3,5.6-0.9,8.6c0,4.3,1.3,8.1,1.3,12.4
		c0,8.6,2.6,16.7,4.3,24.9c0.9,5.6,3.4,10.7,4.7,15.9c0.4,0.9,0,1.7,0,3c-0.9,0-1.7,0-2.6,0c-2.1-0.9-3.4,0-5.1,1.3
		c-3,2.6-3.4,6.4-3.4,9.9c0,3.9,0,7.3,0.4,11.2c0.4,5.1,0.4,9.9,1.7,15c1.7,7.7,3.9,15.4,6,23.2c0.4,0.9,0,2.6,0.4,3
		c2.6,2.1,1.3,3.4-0.4,5.1c-1.3,1.3-2.6,2.6-3,4.3c-1.3,6-0.4,11.6,2.1,17.2c2.1,4.7,4.7,9,7.3,13.7c0.4,0.9,0.4,2.6,0,3
		c-3.9,3.9-2.6,8.1-1.7,12.4c0.4,3,2.1,5.6,3.4,8.1c0.4,1.7,1.7,3.4,1.7,4.7c-0.4,1.7,0.9,1.7,1.7,2.1c2.1,0.9,2.1,2.1,1.3,4.3
		c-0.9,1.3-1.7,2.6-1.3,3.9c0.9,3.9,1.7,8.1,3.9,11.6c3.9,6.4,9,12.4,13.7,18.4c0.4,0.4,0.4,0.9,0.9,2.1c-1.3-0.4-2.1-0.4-3-0.9
		c-4.7-0.9-9.4-2.1-14.2-2.1c-10.7,0-21.9,0.4-32.2-3c-3-0.9-4.7-2.6-6.9-4.7c-1.7-1.7-3.4-3.9-5.1-3.9c-2.6-0.4-6,0-8.6,1.3
		c-6,2.1-10.7,6.4-15,11.2c-2.6,3-4.7,6-5.6,9.4c-0.9,2.6,0.4,7.3,2.6,8.6c6.4,4.3,13.3,8.1,20.6,10.7c7.3,2.6,14.6,4.7,21.9,7.3
		c2.6,0.9,5.1,1.3,7.3,2.1c2.1,0.9,3.9,2.1,5.1,3.4c3.4,3.4,6,7.7,9.4,11.2c6.9,6,14.6,10.7,22.3,15c5.6,3,12,4.3,18.4,6
		c1.7,0.4,2.6,1.3,2.1,3c-0.4,1.3-0.4,2.6-0.4,3.9c-0.4,4.7-0.9,9-1.7,13.7c-0.4,3.4,0,6.4,1.7,9.9c1.3,2.1,2.1,4.7,2.6,6.9
		c0.9,6.9,6.4,12,13.3,12.4c0.9,0,2.1,0.4,3,1.3c2.6,3.4,6.4,4.3,10.3,5.1c1.7,0.4,3.9,0,5.1,1.3c5.1,3.4,10.3,2.6,15.9,2.1
		c1.7,0,3.4-0.4,4.7,0c4.7,1.3,9.4,3,13.7,4.7c3,1.3,6,2.6,8.6,3.9c1.7,0.9,1.7,2.6,0,4.3c-1.3,1.3-2.6,3-4.3,4.3
		c-3.4,2.1-3,5.1-2.6,8.1c0.4,1.3,1.3,3,2.1,4.3c1.3,1.3,2.1,0.9,3-0.9c0.4-1.7,1.3-3.4,2.6-4.3c3-2.1,5.1-5.1,7.7-7.7
		c0.4-0.9,1.7-1.3,2.6-1.7c1.3-0.4,2.6-0.9,4.3-0.9c6.9-1.3,11.2,1.3,13.3,9c0.9,3,1.3,5.6,2.1,8.6c0.4,0.9,0.4,2.1,0.4,3
		c-0.4,1.7,0,3,1.7,2.6c1.3,0,2.6-0.9,3.4-2.1c0.9-1.3,1.3-2.6,2.1-3.9c3-4.3,3-9-0.4-13.3c-0.4-0.9-0.4-1.7-1.3-3.4
		c1.3,0.4,2.1,0.4,2.6,0.9c3.4,2.6,7.3,5.1,10.7,7.7c0.4,0.4,0.4,0.9,0.9,1.3c0.9,2.1,1.7,2.1,3,0.4c0.4-0.9,0.9-2.1,0.4-3.4
		c-0.4-2.1-1.3-4.7-1.3-6.9c0-0.9,0.4-2.1,0.9-2.6c0.4-0.4,1.7,0.4,2.1,0.9c0.9,0.4,1.3,1.3,2.1,1.7c1.3-2.1,1.7-3.4,0.4-4.7
		c-2.1-2.1-4.3-4.3-6.9-6c-0.9-0.4-2.1-0.9-3-0.9c-3.4-0.4-6.9-0.4-10.3-0.4c-7.7-0.4-15.9-0.9-23.6-0.9c-4.7,0-9.4-0.4-13.3-3.4
		c-3.4-3-6.9-5.6-10.3-9c-0.9-0.9-1.3-2.6-1.3-3.9c0-4.3,3.4-6.4,6.4-8.1c4.3-2.1,8.1-4.3,11.6-7.7c2.1-2.6,5.1-4.7,8.1-6.4
		c9.4-6.9,19.7-12,30.4-16.7c8.6-3.9,16.7-7.7,25.7-9.9c6-1.3,11.6-3.4,17.2-4.3c8.6-1.7,17.6-2.6,26.2-3.4c6-0.4,12.4-0.9,18.4-0.4
		c5.1,0,10.3,0.9,15.4,1.7c2.1,0.4,4.7,0.9,6.4,2.1c3.4,3,7.3,4.7,11.6,6c0.9,0.4,1.7,0,2.6,0c-1.3-2.1-2.1-3.9-3-6
		c-1.3-3-2.6-6.4-3.9-9.4c-0.4-1.3-0.9-3-0.4-3.4c0.9-0.9,2.6-1.3,3.9-0.9c3.4,0.4,7.3,1.3,10.7,2.6c6.4,2.1,9.4,4.3,9.9,11.2
		c0.4-0.4,1.3-0.4,1.7-0.9c5.1-4.3,5.6-10.7,2.6-15.9c-1.7-2.6-3.9-5.1-6.4-7.3c-2.6-2.6-5.6-5.1-6.9-9c-0.4-0.9-1.3-2.1-2.1-2.6
		c-9-6-19.3-8.1-29.6-11.2c-4.3-1.3-8.6-1.7-12.4-3.4c-7.3-3-14.2-6.4-21-9.4c-7.3-3.4-13.3-8.6-19.3-13.3c-4.7-3.9-9-9-12.4-14.2
		c-3.9-6.4-6.9-13.3-9.9-20.2c-1.7-3.9-3-7.7-4.7-12c-0.9-3-1.3-6-2.1-9c-0.9-3-2.1-5.6-3-8.6c-1.3-5.6-1.7-11.2-2.6-16.7
		c-0.9-4.7-1.3-9.9-2.1-14.6c-0.4-3,0.4-6.4-1.3-9c0-0.4,0-0.9,0-0.9c0-5.6-0.4-11.6-0.4-17.2c0-1.7,0.4-3,0.4-4.7
		c0-5.1,0-10.3,0.4-15c0.9-8.6,1.7-17.2,2.6-25.3c0.9-9.4,1.3-18.9,1.7-28.3c0-3.4,0-6.9,0-9.9c0-3.4,0.9-6.4,0.9-9.9
		c0-2.1,0-3.9,0-6c0-3.4,0.4-6.9,0.4-10.3c0-0.9,0-1.3-0.4-2.1c-0.4-1.7-0.9-3.4-0.4-5.1c0.9-6-1.3-11.2-2.6-16.7
		c-0.9-2.6-3.4-3.4-5.6-1.3c-0.9,0.9-1.3,2.1-2.1,3c-0.4,0.4-1.3,0.9-2.1,1.3c0.9-5.6,2.1-10.7,3.4-15.4c0.4-1.3,0.4-2.6,0.4-3.9
		c0.9-3.9,1.7-7.7,2.6-11.6s1.3-8.1,1.7-12c0.9-4.3,2.1-8.1,1.7-12.4c0-0.4,0-1.3,0.4-2.1c1.7-5.6,2.1-10.7,0.9-16.3
		c-0.4-1.3-0.4-2.6-0.9-4.3c-0.9-2.6-1.7-5.6-4.3-6c-1.7-0.4-4.7,0.4-6,1.7c-3.4,4.7-6.4,9.9-9,15c-1.3,2.6-1.3,6-2.6,8.6
		c-3,6.9-3.9,14.2-5.1,21.4c-0.4,1.3-0.4,2.6-2.6,1.7c0-6,0-12,0-17.6c-0.4-9.4-0.9-18.4-1.3-27.9c-0.4-4.3,0-8.6-0.4-12.9
		c-0.9-6-1.7-12-2.6-18c-0.4-2.6-1.3-5.1-2.6-7.7c-0.4-0.9-2.1-2.1-3-2.1s-2.6,1.3-3,2.1c-2.6,5.6-3.4,11.6-4.3,17.6
		c-0.9,4.3-0.9,8.6-1.7,12.9c0,0.4-0.9,0.9-1.3,1.7c-0.4-0.4-0.9-1.3-1.3-1.7c-0.4-1.7,0-3.4-0.4-5.1c-0.9-5.1-2.1-10.3-2.6-15.4
		c-0.9-6.9-3.4-13.3-6.4-19.3c-1.3-3-4.7-3.9-6.4-2.1c-1.7,1.7-3.9,3.9-4.3,6c-2.6,7.7-5.1,15-5.6,23.2c0,2.6-0.4,5.1-0.9,7.7
		c0,0.4-0.9,1.3-1.3,1.7c-0.4-0.4-1.3-1.3-1.3-1.7c-0.4-2.6-0.4-5.1-0.4-7.7c0-8.6-1.7-16.7-3.9-24.9c-0.9-4.3-1.7-8.1-4.7-11.2
		c-2.1-2.1-4.3-2.1-5.6,0.4c-1.3,2.1-2.6,4.7-3,6.9c-0.9,3.9-1.7,7.7-2.1,12c-0.4,1.7,0,3,0,4.7c-0.4,3-0.9,6-0.9,8.6
		c-0.4,3.9-0.9,7.7-0.9,11.6c0,3.4,0,6.9,0.4,10.3c0.4,5.6,0.9,11.2,1.3,16.7c-0.4,0-0.4,0.4-0.9,0.4c-0.4-0.9-1.3-1.3-1.7-2.1
		c-2.1-6.4-2.6-13.3-5.6-19.7c-2.6-5.6-4.7-11.6-7.3-17.2c-1.7-3.4-4.3-7.3-6.9-10.3s-6-3.9-8.1-2.1c-2.1,1.3-5.1,6.4-5.1,8.1
		c0.9,6.9,1.3,14.2,2.1,21c0.9,6,1.7,12,3,17.6c1.7,6.9,3.4,13.3,5.6,19.7c0,0.9,0,1.3-0.4,2.1c-0.9-0.4-1.7-0.9-2.1-1.3
		c-0.4-0.4-0.4-1.7-0.9-2.1c-5.1-9-9.4-18.4-15.4-26.6c-3.4-4.7-7.3-9.4-11.2-13.7c-2.6-3-7.7-2.6-8.6,0c-0.9,3-1.3,6.4-0.9,9.4
		c0.9,6,2.1,12.4,3.9,18.4c1.7,6.4,4.3,12.9,6.4,19.3C330.4,239.5,330.9,240.4,330.9,241.7z"/>
	<path class="st0" d="M594.6,582.6c0,2.1-2.1,4.3-4.3,4.3c-1.7,0-4.7-2.6-4.7-4.3s3-4.3,4.7-4.3C592.5,577.9,594.6,580,594.6,582.6z
		"/>
</g>
</svg>
